<?xml version="1.0" encoding="UTF-8"?>
<svg version="1.1" xmlns="http://www.w3.org/2000/svg" width="737" height="736">
<path d="M0 0 C243.21 0 486.42 0 737 0 C737 242.88 737 485.76 737 736 C493.79 736 250.58 736 0 736 C0 493.12 0 250.24 0 0 Z " fill="#0168A1" transform="translate(0,0)"/>
<path d="M0 0 C1.2389502 0.00845947 1.2389502 0.00845947 2.50292969 0.01708984 C20.83072336 0.37238872 37.84294317 5.38953021 52 17.3125 C52.63164062 17.83199219 53.26328125 18.35148437 53.9140625 18.88671875 C69.17167361 32.71610599 76.12719352 54.8746577 77.12817383 74.87329102 C77.80966502 98.93414768 75.99448635 124.01128838 60 143.3125 C59.18595703 144.36630859 59.18595703 144.36630859 58.35546875 145.44140625 C47.7871247 158.48477233 31.34772293 165.1975848 15 167.3125 C11.3949619 167.47805436 7.79591171 167.49757336 4.1875 167.5 C3.24068359 167.51224609 2.29386719 167.52449219 1.31835938 167.53710938 C-14.39292335 167.56954836 -14.39292335 167.56954836 -19.875 162.6875 C-20.40867188 162.24148438 -20.94234375 161.79546875 -21.4921875 161.3359375 C-26.79211176 154.22360391 -26.4346352 146.34899063 -26.40405273 137.86328125 C-26.40976387 136.51548703 -26.41673099 135.16769764 -26.42485046 133.81991577 C-26.44271324 130.17940215 -26.44162682 126.53913046 -26.43590808 122.89858627 C-26.43280681 119.85190902 -26.43891894 116.80527762 -26.44494683 113.75860691 C-26.45896727 106.56852427 -26.45745096 99.37856053 -26.44604492 92.18847656 C-26.43456053 84.78567099 -26.4486502 77.38322758 -26.4754414 69.9804697 C-26.49763146 63.60908499 -26.50422852 57.23781368 -26.49836498 50.86639309 C-26.49500275 47.06779232 -26.49736154 43.26942376 -26.51461601 39.47085571 C-26.53013662 35.89852312 -26.52607383 32.32672545 -26.50731087 28.7544136 C-26.50189668 26.82848517 -26.51609932 24.90253241 -26.53100586 22.97665405 C-26.47150361 15.95441391 -25.83053747 11.26299152 -22 5.3125 C-15.96589915 0.28408263 -7.53853277 -0.05471768 0 0 Z " fill="#0167A1" transform="translate(169,283.6875)"/>
<path d="M0 0 C0.91359787 -0.00708481 1.82719574 -0.01416962 2.76847839 -0.02146912 C3.7740831 -0.0189917 4.77968781 -0.01651428 5.81576538 -0.01396179 C6.87300308 -0.01907272 7.93024078 -0.02418365 9.01951599 -0.02944946 C12.53547752 -0.04341223 16.05124415 -0.0423818 19.56723022 -0.04008484 C22.01468987 -0.0439719 24.46214884 -0.04830659 26.90960693 -0.05307007 C32.05624569 -0.06054936 37.20281591 -0.06023141 42.34945679 -0.05497742 C48.90804268 -0.04922099 55.46634264 -0.06601231 62.02488136 -0.08932209 C67.09020601 -0.10415303 72.1554636 -0.10491777 77.22080612 -0.10181236 C79.63583308 -0.10232223 82.05086413 -0.1074963 84.4658699 -0.11762428 C97.55513473 -0.16572168 109.8997979 0.11205127 122.65316772 3.26069641 C123.55822052 3.47308456 124.46327332 3.68547272 125.39575195 3.90429688 C147.14897074 9.29473862 167.12765158 24.18773826 178.65316772 43.26069641 C192.90630571 67.7650114 195.36141479 96.87837835 188.24740601 124.13032532 C181.75536191 147.40459678 167.35353878 165.46936747 146.77816772 177.94819641 C129.50961081 187.60278986 111.48340812 191.41518437 91.84091187 191.40596008 C90.27831131 191.410998 90.27831131 191.410998 88.68414307 191.4161377 C85.26885767 191.4255751 81.85362157 191.42758641 78.43832397 191.42866516 C76.05701172 191.43188011 73.67569966 191.43524436 71.29438782 191.43875122 C66.31916851 191.44472247 61.34396653 191.44659292 56.3687439 191.44599915 C49.9805585 191.44589703 43.59248301 191.45960929 37.20432377 191.47677135 C32.29486067 191.48785684 27.38542458 191.48991951 22.47595024 191.48938942 C20.11913101 191.49057245 17.76231114 191.49501216 15.40550423 191.50272179 C12.12347641 191.51246245 8.84169319 191.50966842 5.55966187 191.50361633 C4.09086327 191.51204559 4.09086327 191.51204559 2.59239197 191.52064514 C1.70233459 191.51645065 0.81227722 191.51225616 -0.10475159 191.50793457 C-0.88027343 191.50847934 -1.65579527 191.50902411 -2.45481777 191.50958538 C-4.34683228 191.26069641 -4.34683228 191.26069641 -6.34683228 189.26069641 C-6.72183228 185.82319641 -6.72183228 185.82319641 -6.34683228 182.26069641 C-3.14519766 178.89587168 -0.2174854 178.88031468 4.27816772 178.76069641 C8.68088245 178.50872002 12.92013287 178.22524911 17.21566772 177.19819641 C18.33135132 176.93329407 18.33135132 176.93329407 19.46957397 176.66304016 C23.12741194 174.31390988 24.99314218 171.24751886 26.65316772 167.26069641 C27.36817021 162.61038319 27.31636576 158.01818897 27.2684021 153.320755 C27.2719081 151.92045419 27.27757207 150.52015738 27.28521729 149.11987305 C27.29940393 145.33673929 27.28246643 141.55433771 27.25893211 137.77127409 C27.23875166 133.80360984 27.24470626 129.83597385 27.24703979 125.86827087 C27.24698631 119.2089182 27.22728051 112.54985012 27.19515991 105.89057922 C27.15824065 98.1992092 27.14948945 90.50821131 27.15645742 82.81676424 C27.16276843 75.40461811 27.15199906 67.99259912 27.13249207 60.58047867 C27.12433249 57.43149118 27.12160583 54.2825688 27.1231842 51.13357162 C27.12406494 47.42503335 27.10979674 43.71684721 27.08395767 40.00840187 C27.07341331 38.00340108 27.07746073 35.9983401 27.08197021 33.99331665 C27.07062042 32.79340591 27.05927063 31.59349518 27.0475769 30.35722351 C27.04384819 29.31861364 27.04011948 28.28000378 27.03627777 27.20992088 C26.48216296 22.94428236 24.92878073 19.56205048 21.91098022 16.48335266 C18.85027867 14.82591393 15.95006428 14.31301355 12.52816772 13.69819641 C11.86671753 13.57452698 11.20526733 13.45085754 10.52377319 13.32344055 C7.51317527 12.76174002 4.49677162 12.23296114 1.48129272 11.69819641 C0.58926147 11.53319641 -0.30276978 11.36819641 -1.22183228 11.19819641 C-2.00300415 11.06284485 -2.78417603 10.92749329 -3.58901978 10.78804016 C-4.1690979 10.61401672 -4.74917603 10.43999329 -5.34683228 10.26069641 C-6.72808245 7.49819606 -6.53762534 5.31338542 -6.34683228 2.26069641 C-3.91711447 -0.1690214 -3.32649811 0.00857976 0 0 Z M60.65316772 17.63569641 C57.3301147 21.9972035 56.40361536 25.60418722 56.39247131 31.04714966 C56.38538651 32.20361496 56.3783017 33.36008026 56.3710022 34.55158997 C56.37347961 35.81144714 56.37595703 37.07130432 56.37850952 38.36933899 C56.37415971 39.71668785 56.36897567 41.06403423 56.36302185 42.41137695 C56.34964717 46.06442203 56.34905163 49.71736354 56.35158515 53.37042832 C56.35265624 56.42440199 56.34776779 59.47835482 56.34297973 62.53232402 C56.33188911 69.74103241 56.33144415 76.9496887 56.3374939 84.15840149 C56.3435295 91.58323532 56.33123226 99.00787944 56.30992383 106.4326809 C56.29227913 112.81673029 56.28631112 119.20071946 56.28956157 125.58479232 C56.29137054 129.39346232 56.28877729 133.20199709 56.27484703 137.01064491 C56.26222705 140.5951637 56.26425183 144.17938814 56.27725792 147.76390266 C56.28073309 149.69701538 56.26947551 151.63013725 56.25769043 153.56321716 C56.30188873 160.90359393 56.6226655 167.19385664 61.16098022 173.28413391 C61.6946521 173.73014954 62.22832397 174.17616516 62.77816772 174.63569641 C63.29637085 175.09718079 63.81457397 175.55866516 64.34848022 176.03413391 C71.09322563 179.62371028 78.8716911 179.61837959 86.34066772 179.57319641 C87.3060144 179.56828186 88.27136108 179.56336731 89.26596069 179.55830383 C105.185206 179.29896776 119.86852401 174.98085624 132.65316772 165.26069641 C133.3415271 164.73733704 134.02988647 164.21397766 134.73910522 163.67475891 C143.04588781 156.89566048 148.34835981 147.96526337 152.65316772 138.26069641 C153.01281616 137.47823547 153.3724646 136.69577454 153.74301147 135.88960266 C164.33576972 110.26711951 161.93121066 77.42995039 151.65316772 52.26069641 C144.18892296 36.06328526 131.20310856 23.70279468 114.59457397 17.26069641 C99.47975901 11.79171764 74.37665092 6.77127221 60.65316772 17.63569641 Z " fill="#FCFDFE" transform="translate(86.34683227539063,271.7393035888672)"/>
<path d="M0 0 C0.66521119 -0.00382555 1.33042237 -0.00765109 2.01579148 -0.01159257 C4.25524095 -0.02194995 6.49443534 -0.01792534 8.73390198 -0.01396179 C10.33522276 -0.01830677 11.93654147 -0.0234892 13.53785706 -0.02944946 C17.89526241 -0.04287399 22.25258122 -0.0434143 26.61000323 -0.04088616 C30.24337786 -0.03981876 33.87673481 -0.0446939 37.51010567 -0.04949158 C46.07967223 -0.06059877 54.64919497 -0.06101742 63.21876526 -0.05497742 C72.06882938 -0.04893577 80.91873459 -0.06125069 89.76877159 -0.08254749 C97.35861523 -0.10014233 104.94840819 -0.10616819 112.53827149 -0.10290974 C117.07508254 -0.10109331 121.61178026 -0.10376871 126.14857292 -0.11762428 C130.41426487 -0.13016364 134.67970847 -0.12829568 138.94539642 -0.11521339 C140.51315709 -0.11283951 142.08093503 -0.11561121 143.64867592 -0.12383652 C145.78479294 -0.13423777 147.92006639 -0.1262579 150.05615234 -0.11352539 C151.25280738 -0.11369313 152.44946241 -0.11386087 153.68237972 -0.1140337 C156.59156799 0.26069641 156.59156799 0.26069641 158.47664261 1.63425064 C160.07543904 3.96656429 159.96575204 5.71482507 159.96388245 8.52656555 C159.97011124 9.60100418 159.97634003 10.67544281 159.98275757 11.78244019 C159.96894295 13.52157936 159.96894295 13.52157936 159.95484924 15.29585266 C159.955597 17.08025002 159.955597 17.08025002 159.95635986 18.9006958 C159.95401808 21.4166277 159.94428351 23.93256189 159.92774963 26.44844055 C159.90414131 30.31120111 159.90719014 34.17327261 159.91383362 38.03608704 C159.90825766 40.47684638 159.9011483 42.91760281 159.89234924 45.35835266 C159.89326065 46.51980301 159.89417206 47.68125336 159.89511108 48.87789917 C159.88557907 49.94918564 159.87604706 51.02047211 159.8662262 52.1242218 C159.8616188 53.07003616 159.85701141 54.01585052 159.8522644 54.99032593 C159.59156799 57.26069641 159.59156799 57.26069641 157.59156799 59.26069641 C154.65406799 59.69819641 154.65406799 59.69819641 151.59156799 59.26069641 C148.52465025 55.22403347 147.30901346 50.59782447 145.84156799 45.82319641 C140.66180432 28.63100525 140.66180432 28.63100525 128.59156799 16.26069641 C124.48153836 14.69497192 121.05623374 14.00622829 116.6655426 13.98603821 C115.52093063 13.9765062 114.37631866 13.96697418 113.19702148 13.95715332 C111.97499527 13.95806473 110.75296906 13.95897614 109.49391174 13.95991516 C108.22688919 13.95563004 106.95986664 13.95134491 105.65444946 13.94692993 C102.98059639 13.94119592 100.30713059 13.93974059 97.63331604 13.94502258 C94.2147125 13.95082736 90.79664898 13.93385 87.37813473 13.91067791 C84.10423118 13.89237413 80.83035724 13.89612607 77.55641174 13.89741516 C76.3323613 13.88820541 75.10831085 13.87899567 73.84716797 13.86950684 C72.13497826 13.87885002 72.13497826 13.87885002 70.38819885 13.88838196 C69.38703537 13.88775253 68.38587189 13.88712311 67.35437012 13.88647461 C63.22321677 14.44603971 60.56359939 16.14980339 57.84156799 19.26069641 C55.47070383 23.05407908 55.4445741 26.28523827 55.38624573 30.65986633 C55.37634613 31.30404007 55.36644653 31.94821381 55.35624695 32.61190796 C55.32469333 34.73828981 55.29989894 36.86469399 55.27516174 38.99116516 C55.2545869 40.46661963 55.23359029 41.94206828 55.21218872 43.41751099 C55.15702274 47.29888692 55.10758937 51.18031557 55.05934143 55.06178284 C55.00908641 59.02331732 54.95342124 62.98477535 54.89820862 66.94624329 C54.790694 74.7176629 54.68923422 82.48914613 54.59156799 90.26069641 C60.69344137 90.19149163 66.79465084 90.10336663 72.89601135 89.99824524 C74.96852714 89.96513796 77.04113001 89.93706253 79.11378479 89.91426086 C82.10545211 89.88045265 85.09633148 89.82812473 88.08766174 89.77241516 C89.00365646 89.76602524 89.91965118 89.75963531 90.86340332 89.75305176 C98.15664216 89.58904577 105.40969616 88.72579143 110.84156799 83.44819641 C116.46265312 76.0987444 118.53946318 65.9568394 120.91578674 57.15132141 C121.59156799 55.26069641 121.59156799 55.26069641 123.59156799 53.26069641 C126.65406799 53.51069641 126.65406799 53.51069641 129.59156799 54.26069641 C131.12324166 57.32404374 130.73887064 60.53030861 130.73683167 63.89155579 C130.74019028 64.67867447 130.74354889 65.46579315 130.74700928 66.27676392 C130.7565305 68.88600734 130.75846285 71.49518669 130.75953674 74.10444641 C130.76274807 75.91283698 130.76611205 77.72122729 130.7696228 79.52961731 C130.7756167 83.32263288 130.77746239 87.11562565 130.77687073 90.90864563 C130.77676899 95.77808784 130.79043193 100.6473846 130.80764294 105.5167923 C130.81873903 109.25189389 130.82079069 112.98696003 130.820261 116.72207642 C130.82144432 118.51788841 130.82588568 120.31370123 130.83359337 122.10949707 C130.84334691 124.61638203 130.84053395 127.12294737 130.83448792 129.62983704 C130.84010742 130.37691422 130.84572693 131.12399139 130.85151672 131.89370728 C130.81988489 137.03237951 130.81988489 137.03237951 128.59156799 139.26069641 C126.21656799 139.76069641 126.21656799 139.76069641 123.59156799 139.26069641 C120.20803152 135.0054473 118.8652207 131.21558952 117.71656799 125.94819641 C115.83328542 118.05062233 112.60731581 111.78010785 106.59156799 106.26069641 C100.35243817 103.34051838 95.01563912 102.79635859 88.18531799 102.74897766 C86.7373584 102.72205086 86.7373584 102.72205086 85.26014709 102.69458008 C82.20399732 102.64078444 79.14800094 102.60668035 76.09156799 102.57319641 C74.00821345 102.53999619 71.92487908 102.50550405 69.84156799 102.46968079 C64.7583459 102.38507574 59.67516687 102.31811849 54.59156799 102.26069641 C54.65302253 110.3196813 54.73030106 118.37829876 54.82728291 126.43692684 C54.87183858 130.17967475 54.91112624 133.92231751 54.93800354 137.66523743 C54.96418566 141.28349066 55.00469043 144.90133601 55.05475426 148.51933479 C55.071323 149.89343215 55.08289907 151.26759988 55.0891819 152.64178276 C54.90939221 163.86305878 54.90939221 163.86305878 58.59156799 174.26069641 C66.00991203 179.00688295 76.61526871 178.03689698 85.08180237 178.43257141 C86.24647034 178.49960266 87.41113831 178.56663391 88.61109924 178.63569641 C90.19048279 178.70917297 90.19048279 178.70917297 91.80177307 178.78413391 C94.92397905 179.31748003 96.38213866 180.00581634 98.59156799 182.26069641 C98.96656799 185.82319641 98.96656799 185.82319641 98.59156799 189.26069641 C96.20115601 191.65110839 95.70737835 191.51141514 92.45423889 191.5146637 C91.15446358 191.52312317 91.15446358 191.52312317 89.82843018 191.53175354 C88.87563675 191.52770508 87.92284332 191.52365662 86.94117737 191.51948547 C85.43863152 191.52474243 85.43863152 191.52474243 83.9057312 191.53010559 C80.58219041 191.53893512 77.25886109 191.5330694 73.93531799 191.52632141 C71.63368183 191.52766771 69.33204595 191.52960794 67.03041077 191.53211975 C62.20164793 191.53507267 57.37295898 191.53076794 52.54420471 191.5214386 C46.34301116 191.51004402 40.14199072 191.51660259 33.94080353 191.52858353 C29.18658637 191.53579757 24.43241051 191.53351629 19.67819214 191.52832794 C17.39115377 191.52699018 15.10411169 191.52864355 12.81707764 191.53328705 C9.62526972 191.53834477 6.43374533 191.53065258 3.24195862 191.51948547 C2.28916519 191.52353394 1.33637177 191.5275824 0.35470581 191.53175354 C-0.51181107 191.52611389 -1.37832794 191.52047424 -2.27110291 191.5146637 C-3.4037772 191.51353262 -3.4037772 191.51353262 -4.5593338 191.51237869 C-6.40843201 191.26069641 -6.40843201 191.26069641 -8.40843201 189.26069641 C-8.78343201 185.82319641 -8.78343201 185.82319641 -8.40843201 182.26069641 C-5.20679739 178.89587168 -2.27908513 178.88031468 2.21656799 178.76069641 C6.61928272 178.50872002 10.85853314 178.22524911 15.15406799 177.19819641 C16.26975159 176.93329407 16.26975159 176.93329407 17.40797424 176.66304016 C21.06581221 174.31390988 22.93154245 171.24751886 24.59156799 167.26069641 C25.30657048 162.61038319 25.25476603 158.01818897 25.20680237 153.320755 C25.21030837 151.92045419 25.21597234 150.52015738 25.22361755 149.11987305 C25.2378042 145.33673929 25.2208667 141.55433771 25.19733238 137.77127409 C25.17715193 133.80360984 25.18310653 129.83597385 25.18544006 125.86827087 C25.18538658 119.2089182 25.16568078 112.54985012 25.13356018 105.89057922 C25.09664092 98.1992092 25.08788972 90.50821131 25.09485769 82.81676424 C25.10116869 75.40461811 25.09039933 67.99259912 25.07089233 60.58047867 C25.06273276 57.43149118 25.0600061 54.2825688 25.06158447 51.13357162 C25.0624652 47.42503335 25.04819701 43.71684721 25.02235794 40.00840187 C25.01181357 38.00340108 25.015861 35.9983401 25.02037048 33.99331665 C25.00902069 32.79340591 24.9976709 31.59349518 24.98597717 30.35722351 C24.98224846 29.31861364 24.97851974 28.28000378 24.97467804 27.20992088 C24.34888329 22.39248213 22.61342972 19.1714191 19.00563049 15.95600891 C14.62068886 13.77858938 10.80121553 13.4406511 5.96656799 13.13569641 C4.28634742 13.01531475 2.60660914 12.88795376 0.92750549 12.75288391 C-0.17778503 12.68109924 -0.17778503 12.68109924 -1.30540466 12.60786438 C-3.68135601 12.21564209 -5.35699373 11.51370082 -7.40843201 10.26069641 C-8.78968218 7.49819606 -8.59922507 5.31338542 -8.40843201 2.26069641 C-5.61542846 -0.53230713 -3.91479752 0.00671798 0 0 Z " fill="#FCFDFD" transform="translate(493.40843200683594,271.7393035888672)"/>
<path d="M0 0 C0.87020782 0.00561951 1.74041565 0.01123901 2.63699341 0.01702881 C3.5525148 0.01513046 4.46803619 0.01323212 5.41130066 0.01127625 C8.44747389 0.00756151 11.48340968 0.01828183 14.51956177 0.02947998 C16.62181063 0.0306714 18.72406002 0.03112502 20.8263092 0.03086853 C25.23556848 0.03243456 29.64474671 0.04073389 34.0539856 0.05413818 C39.71940066 0.0711386 45.38472664 0.0749523 51.05016422 0.074193 C55.3917171 0.07446429 59.73325032 0.07993861 64.07479668 0.08719444 C66.16449268 0.09038712 68.25419092 0.09234991 70.34388924 0.09308815 C73.2580359 0.0952448 76.17208606 0.10397402 79.08621216 0.11468506 C79.95844421 0.11423187 80.83067627 0.11377869 81.7293396 0.11331177 C87.68243142 0.14547463 87.68243142 0.14547463 88.79690552 1.25994873 C89.07005367 6.99605984 89.07005367 6.99605984 88.79690552 9.25994873 C86.40214303 11.65471122 85.47524065 11.62827448 82.18362427 12.00604248 C81.26516724 12.12141357 80.34671021 12.23678467 79.40042114 12.35565186 C77.4684207 12.58210871 75.53612938 12.80609867 73.60354614 13.02752686 C68.6124075 13.6588309 64.98110981 14.26168657 60.79690552 17.25994873 C60.13690552 17.25994873 59.47690552 17.25994873 58.79690552 17.25994873 C55.72110259 24.88632693 55.36852299 31.54274354 55.40872192 39.71502686 C55.40464903 41.05149258 55.39930314 42.38795494 55.39279175 43.72441101 C55.37919748 47.3298244 55.38438383 50.93497822 55.393929 54.54039574 C55.4015668 58.32782016 55.39446862 62.11522355 55.38977051 65.90264893 C55.38432488 72.26088416 55.39147311 78.61901459 55.40579224 84.97723389 C55.4221165 92.31012069 55.41682714 99.64275717 55.40031302 106.97563791 C55.38666401 113.29100376 55.38479512 119.6062946 55.39262903 125.92167044 C55.39728684 129.68503003 55.39798287 133.44827227 55.38801956 137.21162415 C55.37930221 140.75107502 55.38545782 144.29020569 55.40270233 147.82962227 C55.40850917 149.73505854 55.39969247 151.64052215 55.39031982 153.54594421 C55.44728124 161.30358018 55.54898196 169.01202517 61.29690552 174.75994873 C65.11573686 177.05124753 67.99406932 177.39414761 72.3664856 177.43695068 C73.50809647 177.44978592 74.64970734 177.46262115 75.82591248 177.47584534 C77.06028549 177.48323227 78.29465851 177.4906192 79.56643677 177.49822998 C81.46978035 177.5103376 81.46978035 177.5103376 83.41157532 177.52268982 C86.09905651 177.53653031 88.78641505 177.54754688 91.47390747 177.55511475 C94.90715491 177.56617109 98.33975278 177.60056742 101.77277088 177.64028645 C105.05809478 177.67280246 108.34347649 177.67723551 111.62893677 177.68572998 C113.47138725 177.71199211 113.47138725 177.71199211 115.35105896 177.73878479 C123.90233739 177.75336143 123.90233739 177.75336143 130.79690552 173.25994873 C135.88050526 166.95594486 138.49962617 159.30299039 140.98440552 151.69744873 C141.31376099 150.72098389 141.64311646 149.74451904 141.98245239 148.73846436 C143.22734824 145.03842602 144.45799133 141.33539145 145.63137817 137.61199951 C145.88838501 136.80617432 146.14539185 136.00034912 146.41018677 135.17010498 C146.74143555 134.10674927 146.74143555 134.10674927 147.07937622 133.02191162 C147.79690552 131.25994873 147.79690552 131.25994873 149.79690552 129.25994873 C152.56653454 128.90486809 154.13034336 128.77917344 156.43280029 130.43988037 C158.30086891 132.93236593 158.17753554 134.59485549 158.18508911 137.69354248 C158.19454559 138.80479492 158.20400208 139.91604736 158.21374512 141.06097412 C158.20463608 142.86102905 158.20463608 142.86102905 158.19534302 144.69744873 C158.19964828 146.54487671 158.19964828 146.54487671 158.20404053 148.42962646 C158.2066071 151.7034283 158.19452162 154.9768041 158.17776489 158.25054932 C158.17191105 160.25805258 158.17774347 162.26516242 158.1880188 164.27264404 C158.20651532 168.12276568 158.20431544 171.97230307 158.19534302 175.82244873 C158.20141571 177.02248535 158.2074884 178.22252197 158.21374512 179.45892334 C158.19956039 181.125802 158.19956039 181.125802 158.18508911 182.82635498 C158.18270233 183.80547852 158.18031555 184.78460205 158.17785645 185.793396 C157.79690552 188.25994873 157.79690552 188.25994873 156.67681408 189.89029884 C153.90890808 191.90691934 151.73863672 191.63764471 148.3374176 191.64089966 C147.34951149 191.64791962 147.34951149 191.64791962 146.34164768 191.65508139 C144.13048504 191.66706618 141.91993821 191.65756114 139.70877075 191.64813232 C138.12538287 191.65219646 136.54199782 191.65753745 134.95861816 191.6640625 C130.65500927 191.67775968 126.3516157 191.6724279 122.04800296 191.66292524 C117.54991487 191.65534238 113.05184551 191.6623703 108.55375671 191.66708374 C101.00041383 191.67254475 93.44715889 191.66534006 85.89382935 191.65106201 C77.15220995 191.63472892 68.41080038 191.64002737 59.66918606 191.65654123 C52.17189815 191.67013925 44.67467353 191.6720842 37.17737728 191.66422522 C32.69595432 191.65954017 28.21463011 191.6589467 23.73321342 191.66883469 C19.52166633 191.67747786 15.31039079 191.6715313 11.09887314 191.65415192 C9.5500477 191.65017309 8.00119955 191.65134485 6.45238304 191.65793991 C4.34441301 191.66609083 2.23732313 191.65591383 0.12940979 191.64089966 C-1.05211953 191.63976858 -2.23364885 191.6386375 -3.45098209 191.63747215 C-4.35917918 191.51288942 -5.26737627 191.38830669 -6.20309448 191.25994873 C-8.50473331 187.80749049 -8.54799771 186.3125616 -8.20309448 182.25994873 C-5.86728332 179.92413757 -5.06765989 179.90535642 -1.87887573 179.51385498 C-1.01455933 179.39848389 -0.15024292 179.28311279 0.74026489 179.16424561 C2.54998058 178.93883618 4.35987364 178.71484574 6.16995239 178.49237061 C15.6981 177.3325027 15.6981 177.3325027 22.9596405 171.5091095 C25.96793151 165.89806957 25.34463173 159.63342009 25.2986145 153.43353271 C25.30240183 152.03338072 25.30790527 150.63323247 25.31498718 149.23309326 C25.32890414 145.44587505 25.31779943 141.65911305 25.30127597 137.87192035 C25.28738625 133.90157418 25.2938899 129.93125344 25.29740906 125.96089172 C25.30010778 119.29561036 25.28666372 112.63050942 25.26345825 105.965271 C25.23683966 98.26654534 25.23510611 90.56812107 25.24684662 82.86936516 C25.25763613 75.4524275 25.25142885 68.03559854 25.23729134 60.61866951 C25.23154279 57.46688318 25.23160526 54.31517668 25.23635674 51.16338921 C25.24113897 47.45077819 25.23097366 43.73849606 25.20940208 40.02594757 C25.20120953 38.01854014 25.20767277 36.01108957 25.21459961 34.00367737 C25.20469498 32.80232147 25.19479034 31.60096558 25.18458557 30.36320496 C25.18215568 29.32329627 25.17972578 28.28338758 25.17722225 27.21196651 C24.63110307 22.97299047 23.08311023 19.59379065 20.10940552 16.50994873 C15.57222997 14.05742141 10.84801584 13.35434458 5.78909302 12.79901123 C5.07269653 12.71916992 4.35630005 12.63932861 3.61819458 12.55706787 C2.1658179 12.40191736 0.71193205 12.26024199 -0.74313354 12.13275146 C-2.78903198 11.92010498 -2.78903198 11.92010498 -6.20309448 11.25994873 C-8.50473331 7.80749049 -8.54799771 6.3125616 -8.20309448 2.25994873 C-5.55221196 -0.39093379 -3.60615672 0.01909281 0 0 Z " fill="#FCFDFE" transform="translate(306.2030944824219,271.74005126953125)"/>
</svg>
